<mxfile host="app.diagrams.net" modified="2023-04-04T07:02:49.240Z" agent="Mozilla/5.0 (Windows NT 10.0; Win64; x64) AppleWebKit/537.36 (KHTML, like Gecko) Chrome/111.0.0.0 Safari/537.36" etag="ij6wJnLiBJWqwWD7akee" version="21.1.4" type="device">
  <diagram id="R2lEEEUBdFMjLlhIrx00" name="Page-1">
    <mxGraphModel dx="1434" dy="796" grid="1" gridSize="10" guides="1" tooltips="1" connect="1" arrows="1" fold="1" page="1" pageScale="1" pageWidth="850" pageHeight="1100" math="0" shadow="0" extFonts="Permanent Marker^https://fonts.googleapis.com/css?family=Permanent+Marker">
      <root>
        <mxCell id="0" />
        <mxCell id="1" parent="0" />
        <mxCell id="GVj67lRI6UVRpVfSHgP1-77" value="" style="rounded=0;whiteSpace=wrap;html=1;" parent="1" vertex="1">
          <mxGeometry width="1060" height="660" as="geometry" />
        </mxCell>
        <mxCell id="GVj67lRI6UVRpVfSHgP1-44" value="" style="endArrow=none;html=1;rounded=0;exitX=1;exitY=0.5;exitDx=0;exitDy=0;" parent="1" source="GVj67lRI6UVRpVfSHgP1-39" edge="1">
          <mxGeometry width="50" height="50" relative="1" as="geometry">
            <mxPoint x="220" y="360" as="sourcePoint" />
            <mxPoint x="280" y="490" as="targetPoint" />
          </mxGeometry>
        </mxCell>
        <mxCell id="GVj67lRI6UVRpVfSHgP1-43" value="" style="endArrow=none;html=1;rounded=0;exitX=1;exitY=0.5;exitDx=0;exitDy=0;" parent="1" source="GVj67lRI6UVRpVfSHgP1-38" edge="1">
          <mxGeometry width="50" height="50" relative="1" as="geometry">
            <mxPoint x="220" y="360" as="sourcePoint" />
            <mxPoint x="280" y="490" as="targetPoint" />
          </mxGeometry>
        </mxCell>
        <mxCell id="GVj67lRI6UVRpVfSHgP1-42" value="" style="endArrow=none;html=1;rounded=0;exitX=1;exitY=0.5;exitDx=0;exitDy=0;" parent="1" source="GVj67lRI6UVRpVfSHgP1-37" edge="1">
          <mxGeometry width="50" height="50" relative="1" as="geometry">
            <mxPoint x="220" y="360" as="sourcePoint" />
            <mxPoint x="280" y="490" as="targetPoint" />
          </mxGeometry>
        </mxCell>
        <mxCell id="GVj67lRI6UVRpVfSHgP1-2" value="ID" style="ellipse;whiteSpace=wrap;html=1;" parent="1" vertex="1">
          <mxGeometry x="410" y="10" width="50" height="40" as="geometry" />
        </mxCell>
        <mxCell id="GVj67lRI6UVRpVfSHgP1-3" value="PW" style="ellipse;whiteSpace=wrap;html=1;" parent="1" vertex="1">
          <mxGeometry x="350" y="10" width="50" height="40" as="geometry" />
        </mxCell>
        <mxCell id="GVj67lRI6UVRpVfSHgP1-4" value="EMAIL" style="ellipse;whiteSpace=wrap;html=1;" parent="1" vertex="1">
          <mxGeometry x="290" y="10" width="50" height="40" as="geometry" />
        </mxCell>
        <mxCell id="GVj67lRI6UVRpVfSHgP1-5" value="NAME" style="ellipse;whiteSpace=wrap;html=1;" parent="1" vertex="1">
          <mxGeometry x="230" y="10" width="50" height="40" as="geometry" />
        </mxCell>
        <mxCell id="GVj67lRI6UVRpVfSHgP1-6" value="BIRTHDAY" style="ellipse;whiteSpace=wrap;html=1;" parent="1" vertex="1">
          <mxGeometry x="150" y="10" width="70" height="40" as="geometry" />
        </mxCell>
        <mxCell id="GVj67lRI6UVRpVfSHgP1-7" value="GENDER" style="ellipse;whiteSpace=wrap;html=1;" parent="1" vertex="1">
          <mxGeometry x="80" y="10" width="60" height="40" as="geometry" />
        </mxCell>
        <mxCell id="GVj67lRI6UVRpVfSHgP1-8" value="PHONE1" style="ellipse;whiteSpace=wrap;html=1;" parent="1" vertex="1">
          <mxGeometry x="10" y="10" width="60" height="40" as="geometry" />
        </mxCell>
        <mxCell id="GVj67lRI6UVRpVfSHgP1-9" value="PHONE2" style="ellipse;whiteSpace=wrap;html=1;" parent="1" vertex="1">
          <mxGeometry x="10" y="60" width="60" height="40" as="geometry" />
        </mxCell>
        <mxCell id="GVj67lRI6UVRpVfSHgP1-10" value="ADDRESS" style="ellipse;whiteSpace=wrap;html=1;" parent="1" vertex="1">
          <mxGeometry x="10" y="110" width="60" height="40" as="geometry" />
        </mxCell>
        <mxCell id="GVj67lRI6UVRpVfSHgP1-11" value="INTEREST" style="ellipse;whiteSpace=wrap;html=1;" parent="1" vertex="1">
          <mxGeometry x="10" y="160" width="70" height="40" as="geometry" />
        </mxCell>
        <mxCell id="GVj67lRI6UVRpVfSHgP1-12" value="HOURSTUDY" style="ellipse;whiteSpace=wrap;html=1;" parent="1" vertex="1">
          <mxGeometry x="10" y="210" width="90" height="40" as="geometry" />
        </mxCell>
        <mxCell id="GVj67lRI6UVRpVfSHgP1-13" value="CERTIFICATION" style="ellipse;whiteSpace=wrap;html=1;" parent="1" vertex="1">
          <mxGeometry x="10" y="260" width="100" height="40" as="geometry" />
        </mxCell>
        <mxCell id="GVj67lRI6UVRpVfSHgP1-14" value="EDUCATION_LEVEL" style="ellipse;whiteSpace=wrap;html=1;" parent="1" vertex="1">
          <mxGeometry x="10" y="310" width="125" height="40" as="geometry" />
        </mxCell>
        <mxCell id="GVj67lRI6UVRpVfSHgP1-15" value="GRADE" style="ellipse;whiteSpace=wrap;html=1;" parent="1" vertex="1">
          <mxGeometry x="470" y="10" width="50" height="40" as="geometry" />
        </mxCell>
        <mxCell id="GVj67lRI6UVRpVfSHgP1-17" value="" style="endArrow=none;html=1;rounded=0;entryX=0.5;entryY=1;entryDx=0;entryDy=0;" parent="1" target="GVj67lRI6UVRpVfSHgP1-2" edge="1">
          <mxGeometry width="50" height="50" relative="1" as="geometry">
            <mxPoint x="290" y="220" as="sourcePoint" />
            <mxPoint x="400" y="310" as="targetPoint" />
          </mxGeometry>
        </mxCell>
        <mxCell id="GVj67lRI6UVRpVfSHgP1-22" value="" style="endArrow=none;html=1;rounded=0;entryX=0.5;entryY=1;entryDx=0;entryDy=0;" parent="1" target="GVj67lRI6UVRpVfSHgP1-3" edge="1">
          <mxGeometry width="50" height="50" relative="1" as="geometry">
            <mxPoint x="290" y="220" as="sourcePoint" />
            <mxPoint x="400" y="310" as="targetPoint" />
          </mxGeometry>
        </mxCell>
        <mxCell id="GVj67lRI6UVRpVfSHgP1-23" value="" style="endArrow=none;html=1;rounded=0;entryX=0.5;entryY=1;entryDx=0;entryDy=0;" parent="1" source="GVj67lRI6UVRpVfSHgP1-1" target="GVj67lRI6UVRpVfSHgP1-4" edge="1">
          <mxGeometry width="50" height="50" relative="1" as="geometry">
            <mxPoint x="290" y="220" as="sourcePoint" />
            <mxPoint x="400" y="310" as="targetPoint" />
          </mxGeometry>
        </mxCell>
        <mxCell id="GVj67lRI6UVRpVfSHgP1-24" value="" style="endArrow=none;html=1;rounded=0;entryX=0.5;entryY=1;entryDx=0;entryDy=0;" parent="1" target="GVj67lRI6UVRpVfSHgP1-5" edge="1">
          <mxGeometry width="50" height="50" relative="1" as="geometry">
            <mxPoint x="290" y="220" as="sourcePoint" />
            <mxPoint x="400" y="310" as="targetPoint" />
          </mxGeometry>
        </mxCell>
        <mxCell id="GVj67lRI6UVRpVfSHgP1-25" value="" style="endArrow=none;html=1;rounded=0;entryX=0.5;entryY=1;entryDx=0;entryDy=0;" parent="1" target="GVj67lRI6UVRpVfSHgP1-6" edge="1">
          <mxGeometry width="50" height="50" relative="1" as="geometry">
            <mxPoint x="290" y="220" as="sourcePoint" />
            <mxPoint x="400" y="310" as="targetPoint" />
          </mxGeometry>
        </mxCell>
        <mxCell id="GVj67lRI6UVRpVfSHgP1-26" value="" style="endArrow=none;html=1;rounded=0;entryX=0.5;entryY=1;entryDx=0;entryDy=0;" parent="1" target="GVj67lRI6UVRpVfSHgP1-7" edge="1">
          <mxGeometry width="50" height="50" relative="1" as="geometry">
            <mxPoint x="290" y="220" as="sourcePoint" />
            <mxPoint x="400" y="310" as="targetPoint" />
          </mxGeometry>
        </mxCell>
        <mxCell id="GVj67lRI6UVRpVfSHgP1-27" value="" style="endArrow=none;html=1;rounded=0;entryX=1;entryY=1;entryDx=0;entryDy=0;" parent="1" target="GVj67lRI6UVRpVfSHgP1-8" edge="1">
          <mxGeometry width="50" height="50" relative="1" as="geometry">
            <mxPoint x="290" y="220" as="sourcePoint" />
            <mxPoint x="400" y="310" as="targetPoint" />
          </mxGeometry>
        </mxCell>
        <mxCell id="GVj67lRI6UVRpVfSHgP1-28" value="" style="endArrow=none;html=1;rounded=0;entryX=1;entryY=0.5;entryDx=0;entryDy=0;" parent="1" target="GVj67lRI6UVRpVfSHgP1-9" edge="1">
          <mxGeometry width="50" height="50" relative="1" as="geometry">
            <mxPoint x="290" y="220" as="sourcePoint" />
            <mxPoint x="400" y="310" as="targetPoint" />
          </mxGeometry>
        </mxCell>
        <mxCell id="GVj67lRI6UVRpVfSHgP1-29" value="" style="endArrow=none;html=1;rounded=0;entryX=1;entryY=0.5;entryDx=0;entryDy=0;" parent="1" target="GVj67lRI6UVRpVfSHgP1-10" edge="1">
          <mxGeometry width="50" height="50" relative="1" as="geometry">
            <mxPoint x="290" y="220" as="sourcePoint" />
            <mxPoint x="400" y="310" as="targetPoint" />
          </mxGeometry>
        </mxCell>
        <mxCell id="GVj67lRI6UVRpVfSHgP1-30" value="" style="endArrow=none;html=1;rounded=0;entryX=1;entryY=0.5;entryDx=0;entryDy=0;" parent="1" target="GVj67lRI6UVRpVfSHgP1-11" edge="1">
          <mxGeometry width="50" height="50" relative="1" as="geometry">
            <mxPoint x="290" y="220" as="sourcePoint" />
            <mxPoint x="400" y="310" as="targetPoint" />
          </mxGeometry>
        </mxCell>
        <mxCell id="GVj67lRI6UVRpVfSHgP1-31" value="" style="endArrow=none;html=1;rounded=0;entryX=1;entryY=0.5;entryDx=0;entryDy=0;" parent="1" target="GVj67lRI6UVRpVfSHgP1-12" edge="1">
          <mxGeometry width="50" height="50" relative="1" as="geometry">
            <mxPoint x="290" y="220" as="sourcePoint" />
            <mxPoint x="400" y="310" as="targetPoint" />
          </mxGeometry>
        </mxCell>
        <mxCell id="GVj67lRI6UVRpVfSHgP1-32" value="" style="endArrow=none;html=1;rounded=0;entryX=1;entryY=0.5;entryDx=0;entryDy=0;" parent="1" target="GVj67lRI6UVRpVfSHgP1-13" edge="1">
          <mxGeometry width="50" height="50" relative="1" as="geometry">
            <mxPoint x="290" y="220" as="sourcePoint" />
            <mxPoint x="400" y="310" as="targetPoint" />
          </mxGeometry>
        </mxCell>
        <mxCell id="GVj67lRI6UVRpVfSHgP1-33" value="" style="endArrow=none;html=1;rounded=0;entryX=1;entryY=0.5;entryDx=0;entryDy=0;" parent="1" target="GVj67lRI6UVRpVfSHgP1-14" edge="1">
          <mxGeometry width="50" height="50" relative="1" as="geometry">
            <mxPoint x="290" y="220" as="sourcePoint" />
            <mxPoint x="400" y="310" as="targetPoint" />
          </mxGeometry>
        </mxCell>
        <mxCell id="GVj67lRI6UVRpVfSHgP1-34" value="" style="endArrow=none;html=1;rounded=0;entryX=0.5;entryY=1;entryDx=0;entryDy=0;" parent="1" target="GVj67lRI6UVRpVfSHgP1-15" edge="1">
          <mxGeometry width="50" height="50" relative="1" as="geometry">
            <mxPoint x="290" y="220" as="sourcePoint" />
            <mxPoint x="400" y="310" as="targetPoint" />
          </mxGeometry>
        </mxCell>
        <mxCell id="GVj67lRI6UVRpVfSHgP1-35" value="" style="endArrow=none;html=1;rounded=0;entryX=0.5;entryY=1;entryDx=0;entryDy=0;" parent="1" target="GVj67lRI6UVRpVfSHgP1-1" edge="1">
          <mxGeometry width="50" height="50" relative="1" as="geometry">
            <mxPoint x="290" y="220" as="sourcePoint" />
            <mxPoint x="315" y="50" as="targetPoint" />
          </mxGeometry>
        </mxCell>
        <mxCell id="GVj67lRI6UVRpVfSHgP1-1" value="USERS" style="rounded=0;whiteSpace=wrap;html=1;" parent="1" vertex="1">
          <mxGeometry x="240" y="170" width="120" height="60" as="geometry" />
        </mxCell>
        <mxCell id="GVj67lRI6UVRpVfSHgP1-37" value="CITY_NUMBER" style="ellipse;whiteSpace=wrap;html=1;" parent="1" vertex="1">
          <mxGeometry x="20" y="410" width="90" height="40" as="geometry" />
        </mxCell>
        <mxCell id="GVj67lRI6UVRpVfSHgP1-38" value="GWANGCITY_DO" style="ellipse;whiteSpace=wrap;html=1;" parent="1" vertex="1">
          <mxGeometry x="20" y="460" width="110" height="40" as="geometry" />
        </mxCell>
        <mxCell id="GVj67lRI6UVRpVfSHgP1-39" value="CITY_DISTRICT" style="ellipse;whiteSpace=wrap;html=1;" parent="1" vertex="1">
          <mxGeometry x="20" y="510" width="100" height="40" as="geometry" />
        </mxCell>
        <mxCell id="GVj67lRI6UVRpVfSHgP1-40" value="EUP_MYEON_DONG" style="ellipse;whiteSpace=wrap;html=1;" parent="1" vertex="1">
          <mxGeometry x="20" y="560" width="130" height="40" as="geometry" />
        </mxCell>
        <mxCell id="GVj67lRI6UVRpVfSHgP1-41" value="RI_TONG" style="ellipse;whiteSpace=wrap;html=1;" parent="1" vertex="1">
          <mxGeometry x="150" y="610" width="60" height="40" as="geometry" />
        </mxCell>
        <mxCell id="GVj67lRI6UVRpVfSHgP1-45" value="" style="endArrow=none;html=1;rounded=0;exitX=1;exitY=0.5;exitDx=0;exitDy=0;" parent="1" source="GVj67lRI6UVRpVfSHgP1-40" edge="1">
          <mxGeometry width="50" height="50" relative="1" as="geometry">
            <mxPoint x="220" y="360" as="sourcePoint" />
            <mxPoint x="280" y="490" as="targetPoint" />
          </mxGeometry>
        </mxCell>
        <mxCell id="GVj67lRI6UVRpVfSHgP1-46" value="" style="endArrow=none;html=1;rounded=0;exitX=0.5;exitY=0;exitDx=0;exitDy=0;" parent="1" source="GVj67lRI6UVRpVfSHgP1-41" edge="1">
          <mxGeometry width="50" height="50" relative="1" as="geometry">
            <mxPoint x="220" y="360" as="sourcePoint" />
            <mxPoint x="280" y="490" as="targetPoint" />
          </mxGeometry>
        </mxCell>
        <mxCell id="GVj67lRI6UVRpVfSHgP1-72" style="edgeStyle=orthogonalEdgeStyle;rounded=0;orthogonalLoop=1;jettySize=auto;html=1;exitX=0.5;exitY=0;exitDx=0;exitDy=0;entryX=0.5;entryY=1;entryDx=0;entryDy=0;" parent="1" source="GVj67lRI6UVRpVfSHgP1-36" target="GVj67lRI6UVRpVfSHgP1-1" edge="1">
          <mxGeometry relative="1" as="geometry">
            <Array as="points">
              <mxPoint x="290" y="470" />
              <mxPoint x="290" y="290" />
              <mxPoint x="300" y="290" />
            </Array>
          </mxGeometry>
        </mxCell>
        <mxCell id="GVj67lRI6UVRpVfSHgP1-36" value="ADDRESS" style="rounded=0;whiteSpace=wrap;html=1;" parent="1" vertex="1">
          <mxGeometry x="240" y="470" width="120" height="60" as="geometry" />
        </mxCell>
        <mxCell id="GVj67lRI6UVRpVfSHgP1-48" value="EDUCATION_LEVEL_ID" style="ellipse;whiteSpace=wrap;html=1;" parent="1" vertex="1">
          <mxGeometry x="620" y="10" width="150" height="40" as="geometry" />
        </mxCell>
        <mxCell id="GVj67lRI6UVRpVfSHgP1-49" value="EDUCATION_LEVEL_NAME" style="ellipse;whiteSpace=wrap;html=1;" parent="1" vertex="1">
          <mxGeometry x="780" y="10" width="170" height="40" as="geometry" />
        </mxCell>
        <mxCell id="GVj67lRI6UVRpVfSHgP1-50" value="" style="endArrow=none;html=1;rounded=0;entryX=0.5;entryY=1;entryDx=0;entryDy=0;" parent="1" target="GVj67lRI6UVRpVfSHgP1-48" edge="1">
          <mxGeometry width="50" height="50" relative="1" as="geometry">
            <mxPoint x="780" y="190" as="sourcePoint" />
            <mxPoint x="630" y="310" as="targetPoint" />
          </mxGeometry>
        </mxCell>
        <mxCell id="GVj67lRI6UVRpVfSHgP1-51" value="" style="endArrow=none;html=1;rounded=0;entryX=0.5;entryY=1;entryDx=0;entryDy=0;" parent="1" target="GVj67lRI6UVRpVfSHgP1-49" edge="1">
          <mxGeometry width="50" height="50" relative="1" as="geometry">
            <mxPoint x="780" y="190" as="sourcePoint" />
            <mxPoint x="630" y="310" as="targetPoint" />
          </mxGeometry>
        </mxCell>
        <mxCell id="GVj67lRI6UVRpVfSHgP1-73" style="edgeStyle=orthogonalEdgeStyle;rounded=0;orthogonalLoop=1;jettySize=auto;html=1;entryX=1;entryY=0.5;entryDx=0;entryDy=0;" parent="1" source="GVj67lRI6UVRpVfSHgP1-47" target="GVj67lRI6UVRpVfSHgP1-1" edge="1">
          <mxGeometry relative="1" as="geometry" />
        </mxCell>
        <mxCell id="GVj67lRI6UVRpVfSHgP1-47" value="EDUCATION_LEVEL" style="rounded=0;whiteSpace=wrap;html=1;" parent="1" vertex="1">
          <mxGeometry x="720" y="170" width="120" height="60" as="geometry" />
        </mxCell>
        <mxCell id="GVj67lRI6UVRpVfSHgP1-54" value="GRADE_CODE" style="ellipse;whiteSpace=wrap;html=1;" parent="1" vertex="1">
          <mxGeometry x="930" y="270" width="90" height="40" as="geometry" />
        </mxCell>
        <mxCell id="GVj67lRI6UVRpVfSHgP1-55" value="GRADE" style="ellipse;whiteSpace=wrap;html=1;" parent="1" vertex="1">
          <mxGeometry x="940" y="320" width="50" height="40" as="geometry" />
        </mxCell>
        <mxCell id="GVj67lRI6UVRpVfSHgP1-56" value="" style="endArrow=none;html=1;rounded=0;entryX=0;entryY=0.5;entryDx=0;entryDy=0;" parent="1" target="GVj67lRI6UVRpVfSHgP1-54" edge="1">
          <mxGeometry width="50" height="50" relative="1" as="geometry">
            <mxPoint x="780" y="330" as="sourcePoint" />
            <mxPoint x="1010" y="310" as="targetPoint" />
          </mxGeometry>
        </mxCell>
        <mxCell id="GVj67lRI6UVRpVfSHgP1-57" value="" style="endArrow=none;html=1;rounded=0;entryX=0;entryY=0.5;entryDx=0;entryDy=0;" parent="1" target="GVj67lRI6UVRpVfSHgP1-55" edge="1">
          <mxGeometry width="50" height="50" relative="1" as="geometry">
            <mxPoint x="780" y="330" as="sourcePoint" />
            <mxPoint x="1010" y="310" as="targetPoint" />
          </mxGeometry>
        </mxCell>
        <mxCell id="GVj67lRI6UVRpVfSHgP1-74" style="edgeStyle=orthogonalEdgeStyle;rounded=0;orthogonalLoop=1;jettySize=auto;html=1;entryX=1;entryY=0.75;entryDx=0;entryDy=0;" parent="1" source="GVj67lRI6UVRpVfSHgP1-53" target="GVj67lRI6UVRpVfSHgP1-1" edge="1">
          <mxGeometry relative="1" as="geometry" />
        </mxCell>
        <mxCell id="GVj67lRI6UVRpVfSHgP1-53" value="GRADE" style="rounded=0;whiteSpace=wrap;html=1;" parent="1" vertex="1">
          <mxGeometry x="720" y="290" width="120" height="60" as="geometry" />
        </mxCell>
        <mxCell id="GVj67lRI6UVRpVfSHgP1-59" value="INTEREST" style="ellipse;whiteSpace=wrap;html=1;" parent="1" vertex="1">
          <mxGeometry x="940" y="450" width="70" height="40" as="geometry" />
        </mxCell>
        <mxCell id="GVj67lRI6UVRpVfSHgP1-60" value="INTEREST_CODE" style="ellipse;whiteSpace=wrap;html=1;" parent="1" vertex="1">
          <mxGeometry x="940" y="400" width="110" height="40" as="geometry" />
        </mxCell>
        <mxCell id="GVj67lRI6UVRpVfSHgP1-61" value="" style="endArrow=none;html=1;rounded=0;exitX=0;exitY=0.5;exitDx=0;exitDy=0;" parent="1" source="GVj67lRI6UVRpVfSHgP1-60" edge="1">
          <mxGeometry width="50" height="50" relative="1" as="geometry">
            <mxPoint x="960" y="360" as="sourcePoint" />
            <mxPoint x="780" y="450" as="targetPoint" />
          </mxGeometry>
        </mxCell>
        <mxCell id="GVj67lRI6UVRpVfSHgP1-62" value="" style="endArrow=none;html=1;rounded=0;exitX=0;exitY=0.5;exitDx=0;exitDy=0;" parent="1" source="GVj67lRI6UVRpVfSHgP1-59" edge="1">
          <mxGeometry width="50" height="50" relative="1" as="geometry">
            <mxPoint x="960" y="360" as="sourcePoint" />
            <mxPoint x="780" y="450" as="targetPoint" />
          </mxGeometry>
        </mxCell>
        <mxCell id="GVj67lRI6UVRpVfSHgP1-75" style="edgeStyle=orthogonalEdgeStyle;rounded=0;orthogonalLoop=1;jettySize=auto;html=1;entryX=0.925;entryY=1.017;entryDx=0;entryDy=0;entryPerimeter=0;" parent="1" source="GVj67lRI6UVRpVfSHgP1-58" target="GVj67lRI6UVRpVfSHgP1-1" edge="1">
          <mxGeometry relative="1" as="geometry">
            <Array as="points">
              <mxPoint x="780" y="360" />
              <mxPoint x="351" y="360" />
            </Array>
          </mxGeometry>
        </mxCell>
        <mxCell id="GVj67lRI6UVRpVfSHgP1-58" value="INTEREST" style="rounded=0;whiteSpace=wrap;html=1;" parent="1" vertex="1">
          <mxGeometry x="720" y="420" width="120" height="60" as="geometry" />
        </mxCell>
        <mxCell id="GVj67lRI6UVRpVfSHgP1-64" value="CODE" style="ellipse;whiteSpace=wrap;html=1;" parent="1" vertex="1">
          <mxGeometry x="440" y="610" width="60" height="40" as="geometry" />
        </mxCell>
        <mxCell id="GVj67lRI6UVRpVfSHgP1-65" value="DAYS" style="ellipse;whiteSpace=wrap;html=1;" parent="1" vertex="1">
          <mxGeometry x="510" y="610" width="60" height="40" as="geometry" />
        </mxCell>
        <mxCell id="GVj67lRI6UVRpVfSHgP1-66" value="HOURS" style="ellipse;whiteSpace=wrap;html=1;" parent="1" vertex="1">
          <mxGeometry x="580" y="610" width="60" height="40" as="geometry" />
        </mxCell>
        <mxCell id="GVj67lRI6UVRpVfSHgP1-67" value="" style="endArrow=none;html=1;rounded=0;exitX=0.5;exitY=0;exitDx=0;exitDy=0;" parent="1" source="GVj67lRI6UVRpVfSHgP1-64" edge="1">
          <mxGeometry width="50" height="50" relative="1" as="geometry">
            <mxPoint x="470" y="610" as="sourcePoint" />
            <mxPoint x="540" y="490" as="targetPoint" />
          </mxGeometry>
        </mxCell>
        <mxCell id="GVj67lRI6UVRpVfSHgP1-68" value="" style="endArrow=none;html=1;rounded=0;exitX=0.5;exitY=0;exitDx=0;exitDy=0;" parent="1" source="GVj67lRI6UVRpVfSHgP1-65" edge="1">
          <mxGeometry width="50" height="50" relative="1" as="geometry">
            <mxPoint x="470" y="610" as="sourcePoint" />
            <mxPoint x="540" y="490" as="targetPoint" />
          </mxGeometry>
        </mxCell>
        <mxCell id="GVj67lRI6UVRpVfSHgP1-69" value="" style="endArrow=none;html=1;rounded=0;exitX=0.5;exitY=0;exitDx=0;exitDy=0;" parent="1" source="GVj67lRI6UVRpVfSHgP1-63" edge="1">
          <mxGeometry width="50" height="50" relative="1" as="geometry">
            <mxPoint x="470" y="610" as="sourcePoint" />
            <mxPoint x="540" y="490" as="targetPoint" />
          </mxGeometry>
        </mxCell>
        <mxCell id="GVj67lRI6UVRpVfSHgP1-70" value="" style="endArrow=none;html=1;rounded=0;exitX=0.5;exitY=0;exitDx=0;exitDy=0;" parent="1" source="GVj67lRI6UVRpVfSHgP1-66" target="GVj67lRI6UVRpVfSHgP1-63" edge="1">
          <mxGeometry width="50" height="50" relative="1" as="geometry">
            <mxPoint x="610" y="610" as="sourcePoint" />
            <mxPoint x="540" y="490" as="targetPoint" />
          </mxGeometry>
        </mxCell>
        <mxCell id="GVj67lRI6UVRpVfSHgP1-76" style="edgeStyle=orthogonalEdgeStyle;rounded=0;orthogonalLoop=1;jettySize=auto;html=1;entryX=0.667;entryY=1;entryDx=0;entryDy=0;entryPerimeter=0;" parent="1" source="GVj67lRI6UVRpVfSHgP1-63" target="GVj67lRI6UVRpVfSHgP1-1" edge="1">
          <mxGeometry relative="1" as="geometry">
            <Array as="points">
              <mxPoint x="540" y="400" />
              <mxPoint x="320" y="400" />
            </Array>
          </mxGeometry>
        </mxCell>
        <mxCell id="GVj67lRI6UVRpVfSHgP1-63" value="HOUR_STUDY" style="rounded=0;whiteSpace=wrap;html=1;" parent="1" vertex="1">
          <mxGeometry x="480" y="470" width="120" height="60" as="geometry" />
        </mxCell>
      </root>
    </mxGraphModel>
  </diagram>
</mxfile>
